<svg width="32" height="33" viewBox="0 0 32 33" fill="none" xmlns="http://www.w3.org/2000/svg">
<rect width="32" height="32" fill="black"/>
<path d="M11.134 27V14.4H17.29C18.142 14.4 18.892 14.568 19.54 14.904C20.2 15.228 20.71 15.684 21.07 16.272C21.442 16.86 21.628 17.538 21.628 18.306C21.628 19.11 21.406 19.818 20.962 20.43C20.518 21.042 19.924 21.498 19.18 21.798L21.97 27H19.054L16.588 22.176H13.744V27H11.134ZM13.744 20.034H17.056C17.644 20.034 18.112 19.878 18.46 19.566C18.82 19.254 19 18.846 19 18.342C19 17.838 18.82 17.43 18.46 17.118C18.112 16.806 17.644 16.65 17.056 16.65H13.744V20.034Z" fill="white"/>
<path d="M20.5 17.5C16.5849 13.3529 14.7366 15.6391 13 17.5L11.0625 17.8405C8.91547 18.0957 7.221 16.4581 6.64214 15.6074C4.98452 11.7794 6.80001 9.22729 9.08911 7.63226C10.9204 6.35623 10.4068 3.87727 10.0385 3C12.5644 5.47231 11.7729 8.27027 10.2731 10.3438C9.07331 12.0027 10.3521 13.5871 11.1414 14.1719C11.2045 13.7253 12.4307 12.5503 13.0358 12.0186C12.9043 11.8591 12.7201 11.4922 13.0358 11.3008C13.3516 11.1094 13.641 11.3274 13.7462 11.4603C13.5094 10.2907 13.6515 7.95126 16.1143 7.95126C18.577 7.95126 19.0875 10.1843 19.0348 11.3008C19.1138 11.0616 19.4295 11.0616 19.6663 11.3008C19.8557 11.4922 19.5874 11.8591 19.4295 12.0186C20.2504 12.4652 21.0871 13.9061 21.4029 14.5707C25.5074 11.6996 21.5607 10.5831 21.4029 7.63226C21.2766 5.2716 22.3501 4.14976 22.9026 3.88392C22.0343 7.47275 23.2183 5.00044 26.2968 10.4236C28.7595 14.7621 23.1048 16.8088 20.5 17.5Z" fill="#FFE600"/>
</svg>
